<svg width="499" height="499" viewBox="0 0 499 499" fill="none" xmlns="http://www.w3.org/2000/svg">
<circle cx="249.5" cy="249.5" r="238.5" fill="#13212D"/>
<path d="M424.795 289.74C431.595 289.74 442.937 293.962 451.3 299.605C458.686 304.589 476.325 318.84 477.538 320.802C477.855 321.317 477.102 324.886 475.863 328.732L473.611 335.727L464.555 326.93C454.227 316.897 438.763 303.541 428.5 295.79C424.65 292.883 421.313 290.332 421.083 290.122C420.855 289.912 422.526 289.74 424.795 289.74ZM350.5 183.789C355.55 183.752 364.061 187.657 366.267 191.024C367.193 192.438 369.382 199.364 371.133 206.417C374.066 218.238 374.623 219.539 378.263 223.052C380.435 225.147 382.052 226.948 381.856 227.052C381.66 227.156 378.867 228.59 375.649 230.24C363.322 236.56 359.37 246.378 364.78 257.24C369.069 265.852 377.733 273.287 392.109 280.693C396.724 283.071 404.535 287.991 409.466 291.628C418.26 298.114 418.371 298.247 415.227 298.553C410.666 298.997 396.134 296.104 387.688 293.07C365.576 285.126 349.81 273.259 342.743 259.24C338.393 250.609 336.922 243.848 335.998 228.24C335.51 219.99 334.577 210.019 333.924 206.082C333.271 202.145 333.028 197.766 333.383 196.35C334.255 192.877 339.77 186.752 343.481 185.135C345.142 184.411 348.3 183.805 350.5 183.789ZM386.09 234.458C396.059 230.382 397.81 230.695 405.551 237.937C411.946 243.919 445.288 282.772 444.615 283.458C444.432 283.641 436.63 282.649 427.278 281.253C402.687 277.581 391.053 273.212 380.712 263.761C375.01 258.55 371 251.939 371 247.753C371 244.222 378.61 237.517 386.09 234.458ZM350 196.74C346.283 193.023 340 195.331 340 200.414C340 205.344 347.585 207.598 350.443 203.517C352.501 200.58 352.407 199.147 350 196.74Z" fill="#7C9E51"/>
<path d="M298.991 276.742C300.462 276.742 300.895 281.206 300.064 287.812C299.201 294.684 297.685 298.369 292.759 305.568C284.618 317.469 273.472 349.651 276.048 353.82C277.65 356.411 279.789 353.566 282.987 344.589C288.325 329.608 292.752 319.884 297.446 312.828C302.426 305.342 312.428 295.096 319.034 290.712L323.5 287.749L323.815 292.492C324.264 299.251 322.434 311.507 320.008 317.99C317.369 325.044 312.205 333.017 300.933 347.439C288.899 362.834 288.672 363.33 289.207 373.167C290.075 389.105 294.724 395.067 313.371 404.161C328.364 411.472 333.978 415.932 340.454 425.673C349.275 438.941 352.394 453.255 349.107 465.377C348.034 469.332 347.628 469.664 339.743 473.035C324.561 479.525 298.141 486.719 285.058 487.925C282.041 488.203 281.365 487.814 279.588 484.775C278.024 482.098 277.586 479.67 277.67 474.146C277.865 461.348 284.689 450.381 294.655 446.85C299.753 445.044 301 443.942 301 441.242C301 437.705 298.748 436.443 294.522 437.609C284.963 440.248 275.628 448.903 271.889 458.595C269.065 465.912 268.223 479.567 270.24 485.357L271.672 489.47L262.199 490.136C256.99 490.502 252.559 490.632 252.351 490.425C252.144 490.218 252.702 488.306 253.592 486.176C256.254 479.805 255.083 475.171 248.218 464.907C239.245 451.493 238.257 444.085 242.992 425.744C244.835 418.606 244.846 418.082 243.214 414.809C241.839 412.052 240.214 410.857 234.999 408.772C224.071 404.4 217.573 398.039 216.352 390.525C215.57 385.709 216.893 383.62 228.807 370.843C241.431 357.304 247.796 353.666 260.116 352.946L267.731 352.501L268.415 343.371C270.227 319.162 277.979 300.143 293.23 282.492C295.962 279.329 298.555 276.742 298.991 276.742ZM251.171 375.398C247.362 371.951 242 374.11 242 379.092C242 383.033 243.526 384.742 247.045 384.742C252.183 384.742 254.842 378.72 251.171 375.398Z" fill="#F1E6C9"/>
<path d="M214.81 438.247C227.177 435.465 233.751 437.367 233.751 443.725C232.951 465.901 216.555 476.367 208.457 478.827C192.864 483.299 169.814 481.118 153.777 473.652C147.214 470.597 140.253 465.912 141.065 465.096C141.311 464.851 146.403 464.487 152.381 464.289C167.632 463.783 176.918 460.325 191.251 449.811C200.145 443.287 206.691 440.073 214.81 438.247ZM219.18 453.315C217.32 451.456 212.651 451.245 210.951 452.944C208.998 454.897 209.468 460.521 211.685 461.708C217.745 464.951 223.91 458.046 219.18 453.315Z" fill="#E36637"/>
<path d="M147.58 165.744C149.715 160.987 150.557 159.96 151.61 160.834C152.344 161.442 157.426 168.533 162.904 176.59C168.384 184.649 173.795 192.235 174.929 193.447C177.153 195.822 178.292 196.072 193.575 197.549C207.923 198.936 215.263 202.831 221.893 212.573C228.51 222.297 235.155 227.34 243.818 229.213C248.479 230.221 248.954 232.444 245.148 235.423C241.353 238.393 241.204 240.1 244.476 243.132C247.201 245.657 247.009 247.921 243.488 254.8C238.694 264.165 233.242 268.497 220.172 273.325C210.976 276.723 203.228 283.461 200.066 290.811C196.498 299.107 196.368 307.238 199.568 322.243C202.779 337.301 203.122 350.25 200.595 361.049C199.719 364.792 196.505 373.666 193.452 380.768C186.754 396.347 183.755 407.72 181.006 427.96C179.077 442.163 178.738 443.402 176.215 445.488C174.722 446.723 173.209 447.735 172.853 447.738C170.361 447.753 167.58 410.594 168.432 388.662C169.016 373.634 168.896 370.901 167.606 369.83C166.774 369.142 165.29 368.732 164.306 368.922C160.479 369.659 159.832 373.774 159.807 397.554C159.782 420.976 160.987 436.849 163.578 447.211C165.047 453.086 165.035 453.207 162.785 454.924C159.369 457.53 148.156 461.455 141.884 462.238C135.896 462.986 135.497 462.827 125.721 455.768L120.941 452.317L124.278 450.605C130.051 447.643 135.847 440.996 137.495 435.449C140.881 424.046 138.54 405.957 131.864 391.947C127.493 382.775 118.479 373.807 110.712 370.905C103.475 368.201 100.383 368.158 99.0001 370.743C97.3071 373.907 99.3021 376.22 105.75 378.572C114.027 381.59 119.268 386.465 123.457 395.046C128.195 404.752 130.047 412.548 130.081 422.937C130.113 432.822 128.83 436.288 123.751 440.039C121.087 442.007 113.108 445.742 111.567 445.743C111.351 445.743 107.541 442.879 103.1 439.38C85.9657 425.881 67.2219 406.154 56.4219 390.254C50.995 382.265 50.7439 381.624 51.3419 377.261C52.238 370.729 57.5063 358.648 63.1202 350.255C70.1332 339.769 80.6246 328.209 98.5254 311.243C107.481 302.754 115.959 293.758 118.059 290.518C122.948 282.97 125.673 272.387 127.013 255.743C128.286 239.937 129.759 233.388 134.436 222.752C137.299 216.239 138.056 212.928 139.041 202.601C140.38 188.561 143.624 174.559 147.58 165.744ZM208.8 221.805C204.294 222.758 201.783 225.803 202.182 229.828C202.623 234.289 206.943 237.5 210.717 236.173C216.768 234.045 217.576 226.125 212.035 223.26C210.42 222.425 208.964 221.771 208.8 221.805ZM180.641 170.913C182.036 168.533 183.454 166.864 183.794 167.203C184.133 167.543 184.903 172.303 185.504 177.782C186.553 187.337 186.519 187.743 184.665 187.743C182.973 187.743 175.074 185.789 174.166 185.146C173.674 184.797 177.723 175.896 180.641 170.913Z" fill="#EEA32D"/>
<path d="M289.405 47.1598C298.794 45.0128 318.055 45.9517 330.499 49.1637C356.769 55.9437 382.68 75.0614 387.556 91.2614C388.698 95.0553 388.68 96.4565 387.439 100.636C383.242 114.77 355.879 141.07 339.313 146.892C332.297 149.358 327.701 148.707 323.971 144.713C317.946 138.262 317.57 124.88 322.534 93.6442C325.32 76.1102 325.338 72.7431 322.642 72.7428C319.231 72.7428 316.757 76.3615 315.427 83.2995C312.108 100.614 310.652 113.216 310.579 125.243C310.504 137.552 310.649 138.546 313.314 143.972C318.374 154.277 326.994 158.981 336.917 156.853C346.679 154.76 358.97 147.158 371.781 135.29C375.233 132.091 378.221 129.647 378.424 129.856C378.624 130.068 379.545 134.068 380.469 138.743C383.208 152.592 385.831 160.34 391.596 171.6C398.961 185.985 405.923 194.365 426.191 213.243C451.92 237.207 465.213 254.032 479.006 280.087L485.276 291.929L484.067 297.587C482.077 306.894 481.993 307.089 480.661 305.467C480.021 304.689 475.674 300.861 470.999 296.958C457.305 285.526 455.983 284.137 440.381 264.779C423.241 243.514 408.162 227.364 403.047 224.795C401.096 223.815 397.72 222.69 395.546 222.295C390.14 221.312 384.31 218.193 382.879 215.517C382.226 214.297 380.665 208.446 379.409 202.515C376.745 189.937 373.866 184.866 366.631 180.006C360.433 175.843 354.924 174.393 347.749 175.037C338.293 175.886 328.877 182.941 325.774 191.5C324.894 193.928 322.88 195.775 317.862 198.756C307.241 205.066 307.646 209.064 319.114 211.116C326.655 212.466 326.749 212.661 326.913 227.243C327.067 240.873 329.876 253.81 334.657 262.914C341.355 275.668 355.791 288.792 370.039 295.08L426.191 310.001L470.999 346.001C466.341 349.134 429.717 413.926 426.191 417C416.615 425.343 339.028 323.527 333.837 318.888L330.643 316.035L331.822 306.448C333.346 294.047 333.299 282.898 331.711 279.743C329.607 275.561 325.54 275.962 317.485 281.146C309.79 286.1 309.226 285.939 309.059 278.743C308.793 267.262 305.689 263.09 299.58 266.004C297.767 266.868 293.765 269.627 290.686 272.134C286.902 275.216 284.854 276.314 284.365 275.523C282.444 272.415 282.79 247.834 284.996 230.686C289.213 197.891 285.981 180.636 272.951 166.38C265.264 157.969 255.372 153.405 236.919 149.758C215.183 145.462 206.773 141.732 198.777 132.839C194.774 128.387 186.959 115.255 187.027 113.096C187.042 112.626 188.871 111.12 191.091 109.751C195.121 107.264 201.51 99.841 204.375 94.319C205.921 91.3382 205.222 88.2584 202.6 86.5075C201.838 85.9985 201.83 85.7685 202.575 85.7575C205.969 85.7095 227.481 81.3763 232.928 79.6442C242.005 76.7582 245.701 74.6877 254.54 67.5299C273.498 52.1779 277.38 49.9098 289.405 47.1598ZM273.249 86.8952C270.534 83.6854 266.873 83.2676 263.653 85.8004C259.967 88.6994 260.223 94.0947 264.186 97.0407C266.561 98.8064 267.232 98.8885 269.975 97.7536C275.055 95.6485 276.526 90.7681 273.249 86.8952Z" fill="#EFA430"/>
<path d="M30.487 147.588C40.434 124.906 55.901 101.94 73.229 84.1254C79.09 78.0994 79.248 78.0144 83.839 78.4554C98.063 79.8204 117.165 87.4064 128.505 96.1944C141.61 106.348 144.574 114.95 137.801 123.167C134.321 127.389 128.987 130.286 116.745 134.602C106.299 138.286 103.097 140.495 98.505 147.192C92.417 156.069 90.834 162.284 90.128 180.074L89.5 195.906L86.385 198.689C83.901 200.909 81.622 201.713 75.131 202.663C60.954 204.735 52.489 208.334 44.743 215.579C39.405 220.572 36.274 225.949 33.438 234.992L31.635 240.742H20.317C14.093 240.742 9 240.565 9 240.349C9 237.096 12.399 209.081 13.562 202.742C16.974 184.153 22.852 164.999 30.487 147.588Z" fill="#70B0BA"/>
<path d="M186.5 86.2209C181.3 86.6209 180 93.0542 180 96.2209C180 102.221 184 108.5 185.5 111C196.5 103.5 201 94.5 201.5 92.5C201.9 90.9 201 87.2208 199.5 86.2209C197.5 86.0542 191.7 85.8209 186.5 86.2209Z" fill="black"/>
<circle cx="249.5" cy="249.5" r="244" stroke="#1D485E" stroke-width="11"/>
</svg>
